# xmcd
#
# Track frame offsets: 
#        150
#        14422
#        25248
#        42518
#        53943
#        67117
#        76806
#        92151
#        102524
#        112901
#        127741
#        144780
#        156846
#        170552
#        180949
#        194848
#        203866
#        214440
#        226947
#        243841
#        255247
#        267084
#        281647
#        298808
#
# Disc length: 4188 seconds
#
# Revision: 0
# Processed by: cddbd v1.5.2PL0 Copyright (c) Steve Scherf et al.
# Submitted via: ExactAudioCopy v0.99pb4
#
DISCID=58105a18
DTITLE=Charles Brown - Blue Over You
DYEAR=1958
DGENRE=Blues
TTITLE0=Blue Over You
TTITLE1=Love's Like A River
TTITLE2=Black Night
TTITLE3=I Wanna Go Home
TTITLE4=There Is No Greater Love
TTITLE5=Lost In A Dream
TTITLE6=Merry Christmas Baby #2
TTITLE7=Educated Fool (Tk 1)
TTITLE8=Cloudy (Since You Went Away)
TTITLE9=Please Come Home For Christmas # 2
TTITLE10=Driftin' Blues
TTITLE11=Too Late To Cry Anymore
TTITLE12=Lost In A Fog
TTITLE13=Educated Fool (Master)
TTITLE14=Let's Just Be Friends
TTITLE15=Don't Cry (My Broken Heart)
TTITLE16=So Much To Remember You By
TTITLE17=Sing My Blues Tonight
TTITLE18=Black Nights (Instr.)
TTITLE19=I Wanna Go Home (Instr.)
TTITLE20=Trouble Blues (Instr.)
TTITLE21=Please Come Home For Christmas #2 (Instr.)
TTITLE22=Driftin' Blues (Instr.)
TTITLE23=Merry Christmas Baby (Instr.)
EXTD=
EXTT0=
EXTT1=
EXTT2=
EXTT3=
EXTT4=
EXTT5=
EXTT6=
EXTT7=
EXTT8=
EXTT9=
EXTT10=
EXTT11=
EXTT12=
EXTT13=
EXTT14=
EXTT15=
EXTT16=
EXTT17=
EXTT18=
EXTT19=
EXTT20=
EXTT21=
EXTT22=
EXTT23=
PLAYORDER=
